<svg width="32" height="32" viewBox="0 0 32 32" fill="none" xmlns="http://www.w3.org/2000/svg"><path d="M9.48376 7C8.8037 7 8.19172 7.20327 7.73858 7.58456C7.28544 7.96584 7.00728 8.53546 7.00728 9.1454C7.00728 10.3048 8.01293 11.2087 9.29214 11.2981L9.29457 11.2993C9.35552 11.3201 9.41937 11.3311 9.48376 11.332C10.8952 11.332 11.9602 10.3434 11.9602 9.1454C11.9601 9.13447 11.9597 9.12355 11.959 9.11265C11.8959 7.93272 10.8439 7 9.48376 7ZM7.62094 11.9602C7.45626 11.9603 7.29833 12.0257 7.18189 12.1421C7.06544 12.2586 7.00002 12.4165 7 12.5812V24.3791C7.00002 24.5437 7.06544 24.7017 7.18189 24.8181C7.29833 24.9346 7.45626 25 7.62094 25H11.3466C11.5113 25 11.6692 24.9346 11.7856 24.8181C11.9021 24.7017 11.9675 24.5437 11.9675 24.3791V20.7371V12.5812C11.9675 12.4165 11.9021 12.2586 11.7856 12.1421C11.6692 12.0257 11.5113 11.9603 11.3466 11.9602H7.62094ZM13.2094 11.9602C13.0447 11.9603 12.8868 12.0257 12.7704 12.1421C12.6539 12.2586 12.5885 12.4165 12.5885 12.5812V24.3791C12.5885 24.5437 12.6539 24.7017 12.7704 24.8181C12.8868 24.9346 13.0447 25 13.2094 25H16.935C17.0997 25 17.2577 24.9346 17.3741 24.8181C17.4905 24.7017 17.556 24.5437 17.556 24.3791V18.1697C17.556 17.6545 17.6966 17.142 17.9441 16.8065C18.1916 16.471 18.5038 16.2696 19.0974 16.2802C19.7095 16.2907 20.0335 16.5004 20.2787 16.8295C20.5238 17.1587 20.6607 17.6522 20.6607 18.1697V24.3791C20.6607 24.5437 20.7261 24.7017 20.8426 24.8181C20.959 24.9346 21.117 25 21.2816 25H25.0073C25.172 25 25.3299 24.9346 25.4463 24.8181C25.5628 24.7017 25.6282 24.5437 25.6282 24.3791V17.7112C25.6282 15.8723 25.0835 14.4157 24.1498 13.4301C23.2162 12.4446 21.9176 11.9602 20.5443 11.9602C19.239 11.9602 18.2458 12.3979 17.556 12.8444V12.5812C17.556 12.4165 17.4905 12.2586 17.3741 12.1421C17.2577 12.0257 17.0997 11.9603 16.935 11.9602H13.2094Z" fill="#66b2ff"/></svg>