<svg width="32" height="32" viewBox="0 0 32 32" fill="none" xmlns="http://www.w3.org/2000/svg"><path d="M20.0144 21.6119V25H13.3909V22.8461H12.3508C11.556 22.8461 10.853 22.29 10.5099 21.6727C10.133 20.9872 10.0682 19.94 9.12829 19.3001C8.8501 19.0849 9.06518 18.842 9.38444 18.8758C9.97658 19.0401 10.4694 19.4357 10.9278 20.0246C11.3921 20.6134 11.7259 20.9625 12.585 20.9625H13.4556C13.654 19.9807 14.302 19.1716 15.1671 18.7257C14.1256 18.5261 13.1602 18.1273 12.3536 17.5637C11.547 17.0001 10.9233 16.2884 10.5359 15.4897C10.1484 14.6909 10.0089 13.8289 10.1292 12.9776C10.2495 12.1263 10.6261 11.3109 11.2266 10.6016C10.9302 9.9729 10.377 8.43244 11.2719 7C12.7724 7 13.7418 8.02638 14.2059 8.66753C14.9986 8.40857 15.8465 8.27501 16.7027 8.27426C17.5583 8.27651 18.4053 8.41138 19.1969 8.67141C19.6599 8.03057 20.63 7 22.1335 7C22.9133 8.24821 22.5851 9.83438 22.2913 10.7387C22.8538 11.4511 23.1958 12.2607 23.2889 13.1C23.382 13.9394 23.2235 14.7845 22.8266 15.565C22.4296 16.3456 21.8057 17.0392 21.0066 17.5882C20.2075 18.1372 19.2562 18.5259 18.2318 18.7219C19.2854 19.2618 20.0144 20.3467 20.0144 21.6119Z" fill="#66b2ff"/></svg>