<svg width="403" height="308" viewBox="0 0 403 308" fill="none" xmlns="http://www.w3.org/2000/svg">
<path d="M395.91 177.158L386.715 150.185L371.361 155.416L340 63.396L305.037 75.308L305.142 75.621L293.865 124.299L277.82 193.549L287.18 214.215L320.194 202.965L332.212 198.868L345.591 194.307L356.514 226.365L391.478 214.453L380.554 182.395L395.91 177.158ZM332.336 168.717L324.405 171.42L309.216 176.597L319.583 125.124L320.558 120.853L336.396 167.332L332.336 168.717Z" fill="#9DC2E7"/>
<path opacity="0.25" d="M380.554 182.394L391.478 214.452L369.208 204.926L333.615 76.682L320.558 120.854L314.512 145.873L293.866 124.297L305.143 75.62L305.038 75.307L340 63.396L371.36 155.417L386.714 150.185L395.91 177.158L380.554 182.394Z" fill="#010101"/>
<path opacity="0.25" d="M332.212 198.867L320.194 202.964L321.96 178.197V173.682L324.405 171.42L325.978 169.967L332.335 168.717C332.336 168.717 331.942 186.909 332.212 198.867Z" fill="#010101"/>
<path d="M332.338 168.716C332.338 168.716 329.334 164.944 324.09 165.38C318.846 165.816 315.92 167.783 315.744 173.245C315.568 178.708 316.871 206.237 315.674 217.162C314.477 228.087 321.925 229.179 322.352 221.095C322.78 213.011 319.615 187.666 321.961 183.515C324.309 179.364 322.88 188.103 325.342 190.944C327.805 193.784 330.426 188.759 327.805 181.986C325.182 175.212 332.338 168.716 332.338 168.716Z" fill="url(#paint0_linear_103_6)"/>
<path d="M12.161 127.93C11.263 127.93 10.598 127.881 10.311 127.761C9.97598 127.62 8.95398 127.194 0.0319824 111.268L1.63599 110.37C4.96799 116.317 10.021 124.973 11.091 126.08C12.062 126.237 17.398 125.865 22.126 125.39L22.311 127.22C19.334 127.518 14.766 127.93 12.161 127.93Z" fill="#F26647"/>
<path d="M44.503 135.653V136.186C44.503 136.186 44.016 146.295 36.448 145.859C36.429 145.859 36.411 145.854 36.392 145.854C31.712 145.551 25.919 143.367 22.035 141.745C19.594 140.724 17.902 139.924 17.714 139.956C17.222 140.034 23.446 165.927 23.363 167.402C23.354 167.6 23.308 167.811 23.239 168.028C22.798 169.43 21.258 171.112 20.334 171.251C20.237 171.265 20.04 171.085 19.76 170.735C16.946 167.237 5.80696 146.917 5.50296 140.282C5.17696 132.991 8.86296 128.6 13.861 127.763C17.548 127.147 28.329 128.632 33.73 129.455C35.648 129.749 36.884 129.956 36.884 129.956L44.503 135.653Z" fill="#0A2533"/>
<path opacity="0.25" d="M23.364 167.402C23.355 167.6 23.309 167.811 23.24 168.028C22.799 169.43 21.259 171.112 20.335 171.251C20.238 171.265 20.041 171.085 19.761 170.735C23.724 165.14 13.365 137.901 15.618 137.823C16.73 137.786 19.19 139.676 22.036 141.745C19.595 140.724 17.903 139.924 17.715 139.956C17.222 140.034 23.447 165.926 23.364 167.402Z" fill="#010101"/>
<path opacity="0.25" d="M44.503 135.653V136.186C44.503 136.186 44.016 146.295 36.448 145.859C37.937 144.669 38.213 142.572 38.102 140.034C37.974 137.096 35.256 132.067 33.73 129.456C35.648 129.75 36.884 129.957 36.884 129.957L44.503 135.653Z" fill="#010101"/>
<path d="M28.398 102.459C28.146 102.855 27.98 103.186 27.98 103.438C27.98 103.438 27.971 103.423 27.953 103.392C27.865 103.236 27.548 102.689 27.14 102.054C26.45 100.988 25.498 99.663 24.923 99.502C23.999 99.249 21.54 102.356 18.216 102.605C17.995 102.625 17.775 102.628 17.549 102.62C13.89 102.454 10.009 97.264 13.126 91.149C14.216 93.388 16.455 93.443 16.455 93.443C16.455 93.443 15.089 93.168 15.039 91.475C19.024 92.183 21.099 89.181 24.542 90.275C27.98 91.364 27.765 93.442 27.765 93.442C27.765 93.442 30.385 92.403 31.203 95.681C31.86 98.303 29.41 100.887 28.398 102.459Z" fill="#0A2533"/>
<path d="M27.953 103.393C27.719 104.22 27.272 105.122 26.67 105.852C25.94 106.745 24.974 107.397 23.884 107.37C21.558 107.315 19.245 104.193 18.216 102.606C21.54 102.358 23.999 99.251 24.923 99.503C25.498 99.664 26.449 100.988 27.14 102.055C27.547 102.69 27.865 103.237 27.953 103.393Z" fill="url(#paint1_linear_103_6)"/>
<path d="M31.313 103.709C31.313 103.709 29.566 107.7 28.909 106.826C28.555 106.353 27.534 106.041 26.67 105.851C27.273 105.121 27.719 104.219 27.953 103.392C27.972 103.423 27.98 103.438 27.98 103.438C27.98 103.185 28.146 102.854 28.398 102.459C29.667 103.416 31.313 103.709 31.313 103.709Z" fill="url(#paint2_linear_103_6)"/>
<path d="M43.602 137.414C40.816 137.005 33.281 128.812 33.281 125.286C33.281 124.789 33.226 124.237 33.134 123.636C32.555 119.967 30.436 114.588 29.553 110.786C28.528 106.363 30.003 104.708 30.003 104.708C33.433 98.81 41.195 110.501 45.622 119.875L45.627 119.88C47.116 123.038 48.101 125.971 48.192 127.935C48.509 134.572 46.388 137.823 43.602 137.414Z" fill="#5462AD"/>
<path opacity="0.25" d="M43.602 137.414C40.816 137.005 33.281 128.812 33.281 125.286C33.281 124.789 33.226 124.237 33.134 123.636L33.116 122.064L35.846 107.756C35.846 107.756 39.616 112.239 40.218 120.266C40.816 128.293 49.654 130.04 45.626 119.88C47.115 123.038 48.1 125.971 48.191 127.935C48.509 134.572 46.388 137.823 43.602 137.414Z" fill="#010101"/>
<path d="M37.758 119.718C37.685 119.781 37.556 119.832 37.386 119.879C36.094 120.236 32.329 120.182 30.761 119.874C30.527 119.828 30.338 119.773 30.219 119.718C29.185 119.226 30.219 118.022 29.893 115.893C29.566 113.76 28.747 107.535 31.915 105.622C35.229 103.622 37.647 111.193 37.758 114.964C37.869 118.735 38.471 119.116 37.758 119.718Z" fill="#5462AD"/>
<path d="M37.386 119.879C37.386 119.879 37.235 129.087 35.478 133.432C35.478 133.437 35.478 133.437 35.478 133.441C34.931 134.793 34.228 135.671 33.322 135.653C29.511 135.57 20.951 126.518 20.17 126.187C19.393 125.86 15.499 126.435 15.623 125.86C15.747 125.286 17.264 124.016 18.9 123.405C20.542 122.79 20.252 123.157 30.78 127.994C30.637 127.065 30.697 123.047 30.743 120.771C30.748 120.426 30.758 120.123 30.762 119.875C32.33 120.182 36.094 120.237 37.386 119.879Z" fill="url(#paint3_linear_103_6)"/>
<path d="M26.504 173.627C26.771 175.268 15.746 186.49 16.32 183.543C16.89 180.592 20.334 171.25 20.334 171.25C21.258 171.111 22.798 169.43 23.239 168.027C24.141 169.59 26.279 172.266 26.504 173.627Z" fill="#5462AD"/>
<path opacity="0.25" d="M36.448 139.162C36.448 139.162 18.751 135.839 15.255 137.446C11.759 139.052 21.651 167.019 21.651 167.019" stroke="white" stroke-width="0.4597" stroke-miterlimit="10"/>
<path opacity="0.25" d="M35.478 133.432C35.814 131.583 36.067 126.209 35.138 124.085C34.513 122.65 32.187 121.418 30.742 120.771C30.747 120.426 30.757 120.123 30.761 119.875C32.329 120.183 36.094 120.237 37.386 119.88C37.386 119.879 37.235 129.087 35.478 133.432Z" fill="#010101"/>
<path d="M321.487 71.151C321.129 72.53 320.531 74.305 319.602 76.681C318.278 80.088 316.278 84.731 313.331 91.204C313.258 94.492 312.21 115.46 311.925 120.287C311.888 120.876 311.865 121.225 311.856 121.271C311.815 121.482 311.056 121.887 310.229 122.094C309.447 122.296 308.611 122.323 308.251 121.845C307.511 120.862 302.514 101.032 302.271 96.363C302.023 91.692 301.779 92.758 307.511 74.162C306.118 74.815 297.089 74.571 297.089 74.571C297.089 74.571 298.744 97.346 298.753 97.511C298.753 97.534 298.739 97.589 298.707 97.667C298.602 97.98 298.27 98.675 297.912 99.024C297.751 99.184 297.585 99.276 297.433 99.23C297.346 99.208 297.134 99.014 296.827 98.688C295.094 96.848 290.34 90.661 287.765 84.891C284.735 78.091 283.994 73.337 286.864 68.588C289.733 63.835 304.26 63.471 304.26 63.471C305.18 63.728 307.294 63.981 309.386 64.478C310.002 64.621 310.618 64.791 311.198 64.984C314.38 66.041 320.443 67.383 321.749 66.63C322.039 67.644 322.103 68.83 321.487 71.151Z" fill="#6561AB"/>
<path d="M333.528 55.318C332.953 55.644 326.278 55.396 321.767 53.676C321.79 54.471 321.891 55.722 322.006 57.143C322.186 59.382 322.393 62.044 322.342 63.984C322.314 65.368 322.154 66.388 321.767 66.623C321.762 66.628 321.758 66.632 321.748 66.632C321.055 67.032 319.022 66.839 316.788 66.416C315.344 66.14 313.818 65.768 312.517 65.395C312.043 65.257 311.598 65.12 311.198 64.986C308.642 64.131 305.452 63.804 304.26 63.473C303.961 63.39 303.791 63.312 303.781 63.22C303.745 62.769 304.889 61.749 305.427 60.682C305.491 60.549 305.578 60.351 305.675 60.098C306.112 58.981 306.797 56.866 307.128 55.519C307.325 54.724 307.399 54.2 307.225 54.291C306.692 54.576 303.537 60.475 303.169 60.475C303.041 60.475 302.406 60.112 301.652 59.601C300.383 58.741 298.788 57.477 298.751 56.875C298.742 56.792 298.765 56.723 298.825 56.668C299.565 55.969 305.215 46.466 307.265 44.439C308.226 43.482 309.362 42.908 310.286 42.568C311.32 42.182 312.102 42.094 312.102 42.094C313.32 42.052 314.547 42.214 315.743 42.517C319.807 43.533 323.536 46.099 325.66 47.367C328.404 49.004 330.289 48.554 330.983 48.963C331.684 49.378 334.097 54.987 333.528 55.318Z" fill="#F26647"/>
<path d="M322.342 63.984C318.563 64.03 310.163 63.694 305.676 60.099C306.113 58.982 306.798 56.867 307.129 55.52C307.129 55.52 315.997 58.209 322.006 57.143C322.186 59.382 322.393 62.044 322.342 63.984Z" fill="#F69181"/>
<path opacity="0.25" d="M315.745 42.519C315.599 44.091 315.042 45.783 313.331 45.65C310.918 45.462 310.398 43.489 310.288 42.57C311.322 42.184 312.104 42.096 312.104 42.096C313.322 42.054 314.549 42.215 315.745 42.519Z" fill="#010101"/>
<path d="M314.724 39.093C314.724 39.093 314.315 37.415 313.492 36.551C312.826 37.636 310.256 38.192 308.274 38.335C307.336 38.404 306.527 38.381 306.118 38.275C304.725 32.864 309.069 30.491 311.488 30.326C313.901 30.16 316.076 31.958 315.419 34.703C317.588 36.841 314.724 39.093 314.724 39.093Z" fill="#321212"/>
<path d="M314.724 39.093C314.6 39.452 314.407 40.082 314.076 40.67H314.071C313.529 41.649 312.619 42.518 311.042 41.879C310.987 41.856 310.932 41.833 310.881 41.806C309.553 41.203 308.863 40.031 308.514 39.107C308.404 38.817 308.326 38.551 308.275 38.335C310.256 38.192 312.827 37.636 313.493 36.551C313.53 36.593 313.567 36.634 313.603 36.675C314.352 37.567 314.724 39.093 314.724 39.093Z" fill="url(#paint4_linear_103_6)"/>
<path d="M314.517 43.272C314.274 44.789 311.773 44.707 311.501 43.723C311.358 43.213 311.197 42.721 311.073 42.362C310.963 42.027 310.88 41.81 310.88 41.81V41.806C310.931 41.833 310.986 41.856 311.041 41.879C312.618 42.518 313.528 41.65 314.07 40.67H314.075C313.905 41.01 314.36 41.438 314.512 42.242C314.568 42.532 314.582 42.873 314.517 43.272Z" fill="url(#paint5_linear_103_6)"/>
<path d="M301.53 103.329C301.286 105.214 291.535 112.588 291.701 111.278C291.861 109.967 296.827 98.69 296.827 98.69C297.135 99.016 297.347 99.21 297.433 99.232C297.925 99.375 298.55 98.124 298.706 97.669C300.017 99.315 301.75 101.646 301.53 103.329Z" fill="#262166"/>
<path d="M308.25 137.198C305.956 132.278 308.25 121.846 308.25 121.846C308.986 122.83 311.772 121.681 311.854 121.272C311.864 121.226 311.886 120.876 311.923 120.288C311.923 120.288 312.291 125.286 312.728 129.52C313.165 133.754 310.545 142.112 308.25 137.198Z" fill="#262166"/>
<path opacity="0.25" d="M307.51 74.163C306.117 74.816 297.088 74.572 297.088 74.572C297.088 74.572 298.743 97.347 298.752 97.512C298.752 97.535 298.738 97.59 298.706 97.668C298.601 97.981 298.269 98.676 297.911 99.025C296.247 91.232 292.928 76.29 295.575 73.725C298.964 70.447 308.14 69.574 308.273 70.291C308.407 71.013 307.51 74.163 307.51 74.163Z" fill="#010101"/>
<path d="M301.014 63.4C300.881 63.676 300.812 63.906 300.854 64.058C301.051 64.821 300.003 74.379 300.385 75.363C300.766 76.347 300.987 79.459 300.766 81.427C300.545 83.395 296.45 84.595 296.45 82.903C296.45 81.207 296.942 77.221 297.107 75.69C297.272 74.164 295.742 63.102 296.151 61.571C296.418 60.573 297.443 58.882 298.123 57.829C298.486 57.264 298.753 56.877 298.753 56.877C298.814 57.837 302.836 60.477 303.171 60.477C303.17 60.476 301.552 62.288 301.014 63.4Z" fill="url(#paint6_linear_103_6)"/>
<path opacity="0.25" d="M321.487 71.151C319.68 71.018 317.648 70.227 316.232 68.806C314.586 67.16 311.841 65.634 309.386 64.48C310.002 64.623 310.618 64.793 311.198 64.986C314.38 66.043 320.443 67.385 321.749 66.632C322.039 67.644 322.103 68.83 321.487 71.151Z" fill="#010101"/>
<path opacity="0.25" d="M319.602 76.682C318.278 80.089 316.278 84.732 313.331 91.205C313.258 94.493 312.21 115.461 311.925 120.288C311.888 120.877 311.865 121.226 311.856 121.272C311.815 121.483 311.056 121.888 310.229 122.095C310.417 115.024 310.169 99.632 311.365 95.053C312.793 89.573 319.202 77.436 319.602 76.682Z" fill="#010101"/>
<path opacity="0.25" d="M312.517 65.395C312.043 65.257 311.598 65.12 311.198 64.986C308.642 64.131 305.452 63.804 304.26 63.473C303.961 63.39 303.791 63.312 303.781 63.22C303.745 62.769 304.889 61.749 305.427 60.682C305.96 59.615 307.758 54.002 307.225 54.291C306.692 54.576 303.537 60.475 303.169 60.475C303.041 60.475 302.406 60.112 301.652 59.601C301.73 59.468 301.817 59.334 301.914 59.192C303.878 56.296 307.101 52.692 307.647 49.579C308.084 47.285 308.741 48.595 308.63 51.547C308.532 54.196 308.389 62.306 312.517 65.395Z" fill="#010101"/>
<path opacity="0.25" d="M321.767 66.623C321.762 66.628 321.758 66.632 321.748 66.632C321.055 67.032 319.022 66.839 316.788 66.416C320.783 62.412 318.603 51.566 319.229 52.123C319.964 52.776 321.766 53.677 321.766 53.677C321.85 56.628 323.041 65.846 321.767 66.623Z" fill="#010101"/>
<path opacity="0.25" d="M303.17 60.476C303.17 60.476 301.552 62.288 301.014 63.4C301 63.156 300.983 62.931 300.959 62.729C300.835 61.557 299.01 59.009 298.122 57.828C298.485 57.263 298.752 56.876 298.752 56.876C298.813 57.837 302.835 60.476 303.17 60.476Z" fill="#010101"/>
<path opacity="0.25" d="M313.602 36.675C312.619 38.85 309.727 39.102 308.513 39.107C308.403 38.817 308.325 38.551 308.274 38.335C310.255 38.192 312.826 37.636 313.492 36.551C313.529 36.593 313.566 36.634 313.602 36.675Z" fill="#010101"/>
<path opacity="0.25" d="M314.512 42.243C314.328 42.386 314.104 42.492 313.823 42.556C312.504 42.855 311.575 42.598 311.074 42.363C310.964 42.028 310.881 41.811 310.881 41.811V41.807C310.932 41.834 310.987 41.857 311.042 41.88C312.619 42.519 313.529 41.651 314.071 40.671H314.076C313.906 41.011 314.361 41.438 314.512 42.243Z" fill="#010101"/>
<path d="M336.189 52.394C336.18 52.449 336.167 52.504 336.157 52.555C335.615 55.024 333.638 55.286 333.265 55.125C332.893 54.964 331.909 53.833 331.049 49.848C331.03 49.769 331.017 49.691 330.998 49.609C330.998 49.609 329.141 44.846 328.268 42.556C326.112 41.278 325.703 41.798 325.399 40.322C325.1 38.846 326.057 36.938 326.604 36.662C327.151 36.391 329.606 38.685 329.937 39.531C330.263 40.376 336.681 49.773 336.189 52.394Z" fill="url(#paint7_linear_103_6)"/>
<path opacity="0.25" d="M336.157 52.555C335.615 55.024 333.638 55.286 333.265 55.125C332.893 54.964 331.909 53.833 331.049 49.848C331.596 50.955 332.438 52.39 333.362 52.983C334.377 53.63 335.518 53.424 336.157 52.555Z" fill="#010101"/>
<path d="M263.771 181.622L258.502 154.714C254.604 134.812 247.087 120.294 235.952 111.153C224.812 102.018 211.053 99.053 194.672 102.262C178.291 105.471 166.674 113.369 159.828 125.951C152.978 138.539 151.507 154.818 155.419 174.79L160.706 201.8C164.591 221.633 172.099 236.119 183.238 245.254C187.941 249.111 193.118 251.869 198.768 253.521C206.496 255.788 215.112 255.985 224.614 254.127C229.538 253.166 234.035 251.773 238.094 249.952C247.49 245.741 254.579 239.245 259.361 230.455C266.212 217.868 267.679 201.588 263.771 181.622ZM230.881 217.739C229.079 223.257 225.268 226.585 219.447 227.725C213.42 228.906 208.523 227.214 204.745 222.645C202.17 219.532 199.968 214.912 198.142 208.784C198.142 208.779 198.142 208.774 198.142 208.774C198.138 208.765 198.138 208.755 198.133 208.742C197.287 205.901 196.524 202.733 195.843 199.244L188.447 161.468C186.714 151.546 186.709 143.887 188.428 138.489C190.148 133.093 193.954 129.814 199.843 128.665C204.335 127.782 208.21 128.541 211.465 130.932H211.47C212.578 131.75 213.616 132.752 214.582 133.948C218.384 138.651 221.326 146.32 223.404 156.944L230.562 193.498C232.578 204.14 232.684 212.217 230.881 217.739Z" fill="#F26647"/>
<path opacity="0.25" d="M233.525 222.787C235.043 225.123 237.06 241.002 238.095 249.953C234.035 251.774 229.538 253.167 224.615 254.128C215.113 255.985 206.497 255.788 198.769 253.522C199.085 252.809 199.375 252.064 199.623 251.301C204.446 236.566 198.419 209.98 198.143 208.784C199.968 214.912 202.17 219.532 204.746 222.645C208.524 227.214 213.421 228.906 219.448 227.725C225.268 226.584 229.08 223.256 230.882 217.739C232.685 212.218 232.578 204.14 230.565 193.497L223.407 156.943C221.329 146.319 218.386 138.65 214.585 133.947C213.619 132.752 212.581 131.75 211.473 130.931C223.1 133.211 232.543 169.209 236.478 186.574C240.408 203.942 240.739 211.974 233.525 222.787Z" fill="#010101"/>
<path d="M200.708 215.847C200.708 215.847 201.462 217.818 205.422 218.91C209.383 220.002 213.097 213.876 215.719 215.847C218.341 217.818 222.537 225.987 226.229 224.743C229.921 223.499 231.013 243.163 229.266 245.348C227.518 247.533 226.261 229.873 221.646 230.401C217.03 230.927 220.526 244.255 217.904 246.659C215.282 249.063 216.375 240.76 213.535 239.23C210.694 237.701 216.594 306.088 212.223 307.18C207.853 308.273 205.013 304.121 206.761 289.483C208.509 274.845 206.323 224.373 203.701 221.751C201.081 219.129 201.245 218.637 200.708 215.847Z" fill="#6561AB"/>
<path d="M256.344 18.938C256.344 18.938 252.863 9.393 253.149 8.655C253.436 7.918 257.26 6.525 257.541 6.934C257.82 7.344 260.237 14.759 259.827 15.291C259.417 15.824 256.344 18.938 256.344 18.938Z" fill="#262166"/>
<path d="M198.417 6.42101C198.417 6.42101 200.542 7.30201 201.487 9.59701C202.431 11.891 202.063 3.616 202.063 3.616L201.039 2.67401L198.417 6.42101Z" fill="url(#paint8_linear_103_6)"/>
<path d="M197.311 6.421C197.311 6.421 199.974 8.408 200.425 8.531C200.875 8.654 201.745 3.45101 201.352 2.63201C200.957 1.81201 199.514 0.993004 198.577 1.526C197.639 2.059 196.875 6.099 197.311 6.421Z" fill="url(#paint9_linear_103_6)"/>
<path d="M204.399 7.016C204.399 7.016 202.278 2.1 201.352 1.24C200.425 0.380002 198.705 1.486 198.581 1.936C198.457 2.386 200.639 2.71401 201.352 3.45201C202.064 4.19001 200.138 9.63801 201.982 11.564C203.825 13.489 204.399 7.016 204.399 7.016Z" fill="url(#paint10_linear_103_6)"/>
<path d="M253.723 20.043C253.723 20.043 255.607 19.019 256.017 18.486C256.426 17.953 255.689 15.946 256.877 14.103C258.065 12.259 260.605 12.792 261.219 15.004C261.834 17.216 260.237 20.002 259.499 20.862C258.761 21.722 253.723 25.327 253.723 25.327" fill="url(#paint11_linear_103_6)"/>
<path d="M255.073 24.317C255.018 24.644 254.682 25.204 254.03 25.968C251.639 28.763 245.051 34.234 233.176 40.487C232.942 41.443 232.758 42.418 232.62 43.392C232.179 46.504 232.187 49.649 232.335 52.476C232.371 53.203 232.417 53.911 232.468 54.591C232.685 57.57 232.979 60.03 232.901 61.455C232.864 62.08 232.754 62.503 232.543 62.691C232.276 62.925 231.995 63.137 231.701 63.326C225.77 67.133 214.975 61.446 213.228 59.735C213.09 59.602 213.007 59.491 212.99 59.413C212.686 58.264 213.863 57.036 214.52 55.068C214.63 54.733 214.741 53.983 214.851 52.958C215.164 49.928 215.435 44.508 215.532 40.43C215.587 37.827 215.573 35.773 215.454 35.23C215.449 35.221 215.449 35.211 215.449 35.211C215.123 33.873 205.178 18.849 202.195 13.525C201.648 12.555 201.336 11.907 201.353 11.723C201.463 10.523 203.757 6.26201 204.249 6.31701C204.332 6.32601 204.636 6.70801 205.095 7.34201C207.399 10.542 213.596 20.215 214.736 21.447C215.803 22.601 221.232 28.316 223.559 30.766C224.216 31.451 224.625 31.883 224.625 31.883C225.885 31.86 227.148 31.745 228.413 31.548C239.589 29.824 250.572 21.999 253.446 19.824C253.919 19.466 254.173 19.263 254.173 19.263C254.173 19.263 255.321 22.787 255.073 24.317Z" fill="#F47920"/>
<path d="M227.183 36.826C223.371 37.442 223.36 32.482 223.558 30.767C224.215 31.452 224.624 31.884 224.624 31.884C225.884 31.861 227.147 31.746 228.412 31.549C228.886 33.503 228.506 36.615 227.183 36.826Z" fill="#C54527"/>
<path d="M231.042 26.193C230.302 26.639 229.336 26.791 228.104 26.473C227.157 26.234 226.048 25.715 224.756 24.836C224.756 24.836 223.735 26.064 223.653 28.316C220.949 25.981 220.292 23.645 222.586 22.785C221.644 18.689 223.653 17.829 227.009 17.627C230.37 17.42 231.147 20.863 233.155 20.781C233.277 22.617 232.757 25.177 231.042 26.193Z" fill="#262166"/>
<path d="M231.042 26.193C231.005 26.524 230.95 26.905 230.872 27.315C230.421 29.711 229.244 33.053 227.47 32.869C227.378 32.865 227.282 32.846 227.18 32.814C225.585 32.313 224.624 30.764 224.123 29.624C223.792 28.884 223.654 28.318 223.654 28.318C223.681 27.606 223.8 26.994 223.953 26.493C224.279 25.412 224.757 24.838 224.757 24.838C226.049 25.716 227.157 26.236 228.105 26.475C229.336 26.791 230.302 26.639 231.042 26.193Z" fill="url(#paint12_linear_103_6)"/>
<path d="M227.47 34.28C227.451 35.149 227.332 35.829 226.753 35.87C225.58 35.953 224.022 34.422 224.105 32.758C224.132 32.193 224.142 31.591 224.142 31.039C224.142 30.482 224.132 29.977 224.123 29.623C224.624 30.763 225.585 32.312 227.18 32.813C227.282 32.845 227.378 32.864 227.47 32.868C227.465 33.352 227.484 33.839 227.47 34.28Z" fill="url(#paint13_linear_103_6)"/>
<path d="M255.073 24.317C255.018 24.644 254.682 25.204 254.03 25.968C254.061 24.014 253.634 21.049 253.446 19.825C253.919 19.467 254.173 19.264 254.173 19.264C254.173 19.264 255.321 22.787 255.073 24.317Z" fill="#C54527"/>
<path d="M205.094 7.34402C203.348 8.83802 202.496 12.094 202.194 13.528C201.647 12.558 201.335 11.91 201.352 11.726C201.462 10.526 203.756 6.26502 204.248 6.32002C204.332 6.32802 204.635 6.70902 205.094 7.34402Z" fill="#C54527"/>
<path d="M232.467 54.591C228.56 55.156 221.208 55.658 214.85 52.959C215.163 49.929 215.434 44.509 215.531 40.431C218.68 41.764 225.479 44.136 232.62 43.391C232.063 47.305 232.219 51.272 232.467 54.591Z" fill="#FCAF17"/>
<path opacity="0.25" d="M231.7 63.327C225.309 67.428 213.273 60.509 212.989 59.414C212.685 58.265 213.862 57.037 214.519 55.069C214.629 54.734 214.74 53.984 214.85 52.959C215.163 49.929 215.434 44.509 215.531 40.431C215.586 37.828 215.572 35.774 215.453 35.231C215.591 35.654 217.752 42.504 218.859 49.17C220.008 56.052 219.76 59.331 223.121 61.542C225.088 62.834 228.679 63.515 231.7 63.327Z" fill="#010101"/>
<path d="M246.305 82.245C246.305 85.086 236.034 100.828 233.907 104.059C233.663 104.432 233.525 104.639 233.525 104.639C233.525 104.639 232.201 104.487 231.111 104.119C230.353 103.856 229.705 103.498 229.705 103.002C229.705 102.9 229.724 102.744 229.756 102.537C230.119 100.344 232.376 92.409 235.273 81.918C233.747 80.061 223.04 72.958 223.04 72.958C223.04 72.958 223.035 72.967 223.03 72.985C222.566 74.056 207.703 108.426 206.015 111.631C205.955 111.746 205.913 111.819 205.886 111.852C205.123 112.836 201.955 112.942 201.735 110.868C201.735 110.864 201.735 110.864 201.735 110.859C200.825 102.171 208.318 75.964 211.808 64.375C212.433 62.297 212.929 60.688 213.228 59.736C214.975 61.446 225.77 67.133 231.701 63.327C231.995 63.138 232.276 62.927 232.543 62.692C232.754 62.504 232.864 62.081 232.901 61.456C233.011 61.575 233.127 61.704 233.241 61.842C237.377 66.572 246.305 79.509 246.305 82.245Z" fill="#9DC2E7"/>
<path d="M207.062 116.44C206.653 118.486 195.835 124.55 196.82 120.881C197.62 117.906 200.626 112.716 201.734 110.859C201.734 110.864 201.734 110.864 201.734 110.868C201.955 112.942 205.123 112.837 205.885 111.852C205.912 111.82 205.954 111.747 206.014 111.631C206.566 113.213 207.329 115.116 207.062 116.44Z" fill="#262166"/>
<path d="M237.46 114.637C236.637 115.047 225.989 110.95 226.233 109.557C226.481 108.164 229.754 102.537 229.754 102.537C229.722 102.744 229.703 102.9 229.703 103.002C229.703 104.201 233.523 104.639 233.523 104.639C233.523 104.639 233.661 104.432 233.905 104.059C234.38 108.312 238.228 114.252 237.46 114.637Z" fill="#262166"/>
<path opacity="0.25" d="M221.646 71.785C221.646 71.785 209.847 94.956 205.422 110.859" stroke="#010101" stroke-width="0.4597" stroke-miterlimit="10"/>
<path opacity="0.25" d="M224.431 71.785C224.431 71.785 237.54 80.388 238.033 81.781C238.524 83.174 231.232 102.538 231.232 102.538" stroke="#010101" stroke-width="0.4597" stroke-miterlimit="10"/>
<path opacity="0.25" d="M233.24 61.841C231.797 67.606 223.438 66.039 219.163 64.931C216.676 64.287 213.825 64.264 211.808 64.374C212.433 62.296 212.929 60.687 213.228 59.735C214.975 61.445 225.77 67.132 231.701 63.326C231.995 63.137 232.276 62.926 232.543 62.691C232.754 62.503 232.864 62.08 232.901 61.455C233.01 61.575 233.125 61.704 233.24 61.841Z" fill="#010101"/>
<path opacity="0.25" d="M231.111 104.12C230.353 103.857 229.705 103.499 229.705 103.003C229.705 102.901 229.724 102.745 229.756 102.538C230.119 100.345 232.376 92.41 235.273 81.919C233.747 80.062 223.04 72.959 223.04 72.959C223.04 72.959 223.913 70.012 224.897 69.792C225.88 69.576 237.241 79.35 238.496 81.373C239.603 83.15 231.866 97.66 231.111 104.12Z" fill="#010101"/>
<path opacity="0.25" d="M231.042 26.193C231.005 26.524 230.95 26.905 230.872 27.315C228.008 28.773 225.198 25.49 224.863 25.531C224.67 25.554 224.274 26.051 223.953 26.492C224.279 25.411 224.757 24.837 224.757 24.837C226.049 25.715 227.157 26.235 228.105 26.474C229.336 26.791 230.302 26.639 231.042 26.193Z" fill="#010101"/>
<path opacity="0.25" d="M227.47 34.28C225.58 33.82 224.536 31.926 224.142 31.039C224.142 30.482 224.132 29.977 224.123 29.623C224.624 30.763 225.585 32.312 227.18 32.813C227.282 32.845 227.378 32.864 227.47 32.868C227.465 33.352 227.484 33.839 227.47 34.28Z" fill="#010101"/>
<path opacity="0.25" d="M232.62 43.392C232.179 46.504 232.187 49.649 232.335 52.476C231.59 49.336 230.938 45.961 231.7 44.008C233.014 40.643 233.157 40.487 233.176 40.487C232.941 41.443 232.757 42.417 232.62 43.392Z" fill="#010101"/>
<path d="M140.634 74.742L105.262 68.664L105.207 68.981L27.092 156.929L25.479 178.914L36.683 180.84L56.075 184.173L82.105 188.647L84.579 189.07L82.717 199.915L81.853 204.932L79.007 221.505L102.03 225.463L114.38 227.583L119.951 195.148L135.49 197.814L140.179 170.519L124.64 167.853L140.634 74.742ZM96.477 119.81L89.263 161.775L80.634 160.29L61.761 157.05L72.211 144.577L74.602 141.722L94.527 117.94L97.345 114.75L96.477 119.81Z" fill="#6561AB"/>
<path opacity="0.25" d="M82.105 188.647L56.075 184.173C59.141 174.045 62.967 160.087 61.762 157.049L80.635 160.289C81.844 162.304 82.8 165.075 83.058 168.878C83.517 175.609 82.514 182.482 82.105 188.647Z" fill="#010101"/>
<path d="M62.888 157.245C62.888 157.245 65.726 153.307 72.117 154.537C78.508 155.767 79 163.633 76.214 172.318C73.428 181.003 72.773 211.318 74.083 221.15C75.395 230.982 74.575 235.571 71.462 235.898C68.349 236.226 66.873 224.099 68.676 215.579C70.479 207.058 70.315 199.192 67.365 200.503C64.415 201.815 66.873 205.092 65.398 208.041C63.923 210.99 59.499 209.188 59.663 203.616C59.827 198.044 68.736 161.835 62.888 157.245Z" fill="#9DC2E7"/>
<path opacity="0.25" d="M124.64 167.853L140.179 170.519L135.49 197.814L119.951 195.148L114.379 227.583L102.03 225.462L123.735 90.033L140.634 74.742L124.64 167.853Z" fill="#010101"/>
<path d="M173.55 41.623C177.08 41.623 179.941 38.7617 179.941 35.232C179.941 31.7024 177.08 28.841 173.55 28.841C170.02 28.841 167.159 31.7024 167.159 35.232C167.159 38.7617 170.02 41.623 173.55 41.623Z" fill="#F47920"/>
<path d="M395.91 122.839C399.44 122.839 402.301 119.978 402.301 116.448C402.301 112.918 399.44 110.057 395.91 110.057C392.38 110.057 389.519 112.918 389.519 116.448C389.519 119.978 392.38 122.839 395.91 122.839Z" fill="#6561AB"/>
<path d="M61.762 76.178C65.2916 76.178 68.153 73.3167 68.153 69.787C68.153 66.2574 65.2916 63.396 61.762 63.396C58.2323 63.396 55.371 66.2574 55.371 69.787C55.371 73.3167 58.2323 76.178 61.762 76.178Z" fill="#9DC2E7"/>
<path d="M167.16 271.621C170.69 271.621 173.551 268.76 173.551 265.23C173.551 261.7 170.69 258.839 167.16 258.839C163.63 258.839 160.769 261.7 160.769 265.23C160.769 268.76 163.63 271.621 167.16 271.621Z" fill="#F26647"/>
<path d="M359.376 56.935C360.737 56.935 361.841 55.8314 361.841 54.47C361.841 53.1086 360.737 52.005 359.376 52.005C358.015 52.005 356.911 53.1086 356.911 54.47C356.911 55.8314 358.015 56.935 359.376 56.935Z" fill="#F47920"/>
<path d="M171.085 95.318C172.446 95.318 173.55 94.2144 173.55 92.853C173.55 91.4916 172.446 90.388 171.085 90.388C169.724 90.388 168.62 91.4916 168.62 92.853C168.62 94.2144 169.724 95.318 171.085 95.318Z" fill="#9DC2E7"/>
<path d="M97.345 61.942C98.7064 61.942 99.81 60.8384 99.81 59.477C99.81 58.1156 98.7064 57.012 97.345 57.012C95.9836 57.012 94.88 58.1156 94.88 59.477C94.88 60.8384 95.9836 61.942 97.345 61.942Z" fill="#6561AB"/>
<defs>
<linearGradient id="paint0_linear_103_6" x1="320.622" y1="141.229" x2="328.487" y2="267.077" gradientUnits="userSpaceOnUse">
<stop stop-color="#FCAF17"/>
<stop offset="1" stop-color="#F47920"/>
</linearGradient>
<linearGradient id="paint1_linear_103_6" x1="22.6411" y1="107.175" x2="23.5424" y2="98.6533" gradientUnits="userSpaceOnUse">
<stop stop-color="#FBC4AF"/>
<stop offset="1" stop-color="#EA8B69"/>
</linearGradient>
<linearGradient id="paint2_linear_103_6" x1="33.998" y1="104.325" x2="26.132" y2="104.898" gradientUnits="userSpaceOnUse">
<stop stop-color="#FBC4AF"/>
<stop offset="1" stop-color="#EA8B69"/>
</linearGradient>
<linearGradient id="paint3_linear_103_6" x1="23.7007" y1="136.43" x2="30.9109" y2="110.539" gradientUnits="userSpaceOnUse">
<stop stop-color="#FBC4AF"/>
<stop offset="1" stop-color="#EA8B69"/>
</linearGradient>
<linearGradient id="paint4_linear_103_6" x1="311.377" y1="41.5024" x2="311.705" y2="34.0063" gradientUnits="userSpaceOnUse">
<stop stop-color="#FBC4AF"/>
<stop offset="1" stop-color="#EA8B69"/>
</linearGradient>
<linearGradient id="paint5_linear_103_6" x1="312.833" y1="44.6909" x2="312.587" y2="39.3657" gradientUnits="userSpaceOnUse">
<stop stop-color="#FBC4AF"/>
<stop offset="1" stop-color="#EA8B69"/>
</linearGradient>
<linearGradient id="paint6_linear_103_6" x1="296.396" y1="84.8916" x2="302.295" y2="46.547" gradientUnits="userSpaceOnUse">
<stop stop-color="#FBC4AF"/>
<stop offset="1" stop-color="#EA8B69"/>
</linearGradient>
<linearGradient id="paint7_linear_103_6" x1="329.4" y1="38.6416" x2="333.988" y2="62.8388" gradientUnits="userSpaceOnUse">
<stop stop-color="#FBC4AF"/>
<stop offset="1" stop-color="#EA8B69"/>
</linearGradient>
<linearGradient id="paint8_linear_103_6" x1="199.266" y1="2.94731" x2="202.135" y2="9.04341" gradientUnits="userSpaceOnUse">
<stop stop-color="#FBC4AF"/>
<stop offset="1" stop-color="#EA8B69"/>
</linearGradient>
<linearGradient id="paint9_linear_103_6" x1="194.916" y1="2.7964" x2="202.044" y2="5.78679" gradientUnits="userSpaceOnUse">
<stop stop-color="#FBC4AF"/>
<stop offset="1" stop-color="#EA8B69"/>
</linearGradient>
<linearGradient id="paint10_linear_103_6" x1="199.007" y1="0.502002" x2="203.596" y2="10.2522" gradientUnits="userSpaceOnUse">
<stop stop-color="#FBC4AF"/>
<stop offset="1" stop-color="#EA8B69"/>
</linearGradient>
<linearGradient id="paint11_linear_103_6" x1="264.341" y1="10.1514" x2="251.315" y2="25.6359" gradientUnits="userSpaceOnUse">
<stop stop-color="#FBC4AF"/>
<stop offset="1" stop-color="#EA8B69"/>
</linearGradient>
<linearGradient id="paint12_linear_103_6" x1="227.907" y1="33.7549" x2="226.514" y2="17.5313" gradientUnits="userSpaceOnUse">
<stop stop-color="#FBC4AF"/>
<stop offset="1" stop-color="#EA8B69"/>
</linearGradient>
<linearGradient id="paint13_linear_103_6" x1="225.524" y1="33.8809" x2="226.18" y2="29.7024" gradientUnits="userSpaceOnUse">
<stop stop-color="#FBC4AF"/>
<stop offset="1" stop-color="#EA8B69"/>
</linearGradient>
</defs>
</svg>
